<?xml version="1.0" encoding="UTF-8" standalone="no"?>
<svg
   version="1.1"
   id="Layer_1"
   x="0px"
   y="0px"
   width="1024"
   viewBox="0 0 1024 1024"
   enable-background="new 0 0 1024 912"
   xml:space="preserve"
   sodipodi:docname="logo_wob.svg"
   height="1024"
   inkscape:version="1.2.2 (b0a84865, 2022-12-01)"
   inkscape:export-filename="logo_wob.png"
   inkscape:export-xdpi="96"
   inkscape:export-ydpi="96"
   xmlns:inkscape="http://www.inkscape.org/namespaces/inkscape"
   xmlns:sodipodi="http://sodipodi.sourceforge.net/DTD/sodipodi-0.dtd"
   xmlns="http://www.w3.org/2000/svg"
   xmlns:svg="http://www.w3.org/2000/svg"><defs
   id="defs72" /><sodipodi:namedview
   id="namedview70"
   pagecolor="#ffffff"
   bordercolor="#666666"
   borderopacity="1.0"
   inkscape:showpageshadow="2"
   inkscape:pageopacity="0"
   inkscape:pagecheckerboard="true"
   inkscape:deskcolor="#d1d1d1"
   showgrid="false"
   inkscape:zoom="0.47661551"
   inkscape:cx="694.48013"
   inkscape:cy="528.72807"
   inkscape:window-width="1482"
   inkscape:window-height="888"
   inkscape:window-x="981"
   inkscape:window-y="1630"
   inkscape:window-maximized="0"
   inkscape:current-layer="Layer_1" />
<rect
   style="fill:#000000;stroke:#000000;stroke-width:6.51148;stroke-opacity:1"
   id="rect412"
   width="1017.4885"
   height="1017.4885"
   x="3.2557399"
   y="3.2557399" /><path
   fill="#000000"
   opacity="1"
   stroke="none"
   d="m 419.80532,625.0486 c -4.44675,19.02545 -11.86524,35.42394 -29.32819,45.42584 -21.61775,12.38153 -54.1972,7.91484 -65.35244,-21.65589 -8.43273,-22.35373 -9.79951,-45.03855 -6.49722,-68.37721 2.69864,-19.07252 7.39707,-37.8176 9.29223,-57.01174 1.48662,-15.05662 1.13849,-29.949 -5.83602,-43.8614 -6.26639,-12.49982 -16.72271,-18.88353 -30.48679,-20.2329 -11.23433,-1.10132 -22.4726,0.65627 -33.77188,-0.70276 -20.26948,-2.43787 -35.53396,-11.49367 -42.42829,-31.23709 -6.91739,-19.80939 -1.4407,-37.47981 11.63005,-53.2277 9.35669,-11.27306 21.81159,-17.69894 35.34517,-22.18398 26.66332,-8.83627 53.96796,-11.49452 82.02801,-9.31087 32.34682,2.51731 64.09632,7.74401 94.72614,18.45635 25.10146,8.77887 48.76579,20.45221 68.84512,38.41666 15.81638,14.15045 26.03055,31.51537 28.14619,52.68828 3.82201,38.24886 -24.33267,61.71669 -61.93336,52.18788 -5.24536,-1.32928 -10.3866,-3.06543 -15.62,-4.44651 -24.02571,-6.34032 -39.44154,5.20226 -40.83993,30.17036 -0.82986,14.81778 0.8413,29.45609 2.95445,44.00003 2.45626,16.90558 2.37392,33.62305 -0.87324,50.90265 z"
   id="path61"
   style="stroke-width:1.3016;fill:#ffffff" />
<path
   fill="#000000"
   opacity="1"
   stroke="none"
   d="m 483.44151,561.40665 c 11.7643,-5.97421 24.12641,-8.45887 36.28368,-11.64343 12.26689,-3.2132 23.86877,-7.54997 32.63214,-17.61866 9.12667,-10.48611 12.7828,-22.84444 14.34856,-36.22013 2.06337,-17.62764 1.05197,-35.47895 4.54755,-53.02822 5.92638,-29.75281 24.81541,-53.19924 50.35733,-68.64128 23.70584,-14.33206 61.17231,-20.29233 88.52467,-22.59566 17.91983,-1.50907 35.48463,-0.17211 52.86378,4.24591 41.48911,10.54715 51.85636,56.09184 36.30282,82.5652 -9.86501,16.79094 -25.85986,24.42222 -43.95287,28.4748 -9.07178,2.03193 -18.36068,3.07747 -27.46684,4.97485 -37.80351,7.87668 -66.96703,27.79948 -69.4254,66.34998 -1.13039,17.72632 -1.72384,35.5886 -6.63852,52.8133 -12.95748,45.41305 -44.35811,71.0476 -89.10168,81.7281 -19.97997,4.76921 -40.20984,5.87713 -60.5795,1.6517 -27.04937,-5.61106 -45.905,-22.80042 -49.82572,-45.91996 -4.78082,-28.19128 6.37479,-52.51067 31.13,-67.1365 z"
   id="path63"
   sodipodi:nodetypes="csssssssssssssssc"
   style="stroke-width:1.3016;fill:#ffffff" />
<path
   fill="#000000"
   opacity="1"
   stroke="none"
   d="m 744.03805,503.04727 c 20.9704,0.77052 35.36915,10.83504 44.88849,28.09081 7.08293,13.83091 12.21384,30.72985 24.16829,28.74182 24.12882,-5.53609 17.83131,-74.7281 19.80481,-95.37604 2.41102,-24.24697 3.87417,-48.65648 13.18629,-71.70496 7.63171,-18.88937 19.34883,-33.73171 40.12249,-39.1189 33.82514,-8.77179 61.41294,7.29757 66.84214,43.28216 2.9739,19.71068 1.4044,49.99998 -0.633,75.29168 -3.6949,45.86614 -7.5216,86.17973 -26.436,126.04668 -10.6494,22.44655 -22.0432,40.69647 -42.13209,56.08841 -47.79739,36.62199 -111.67526,30.85917 -151.68029,-14.11612 -19.45345,-21.87053 -33.24293,-44.207 -39.18921,-73.02997 -7.43305,-36.02976 14.30391,-63.74891 51.05808,-64.19557 z"
   id="path65"
   sodipodi:nodetypes="ccccssssssssc"
   style="stroke-width:1.34205;fill:#ffffff" />
<path
   fill="#000000"
   opacity="1"
   stroke="none"
   d="m 280.9143,620.47792 c -16.62976,32.13236 -43.36823,49.19303 -77.91154,55.07356 -12.93517,2.20193 -25.86391,1.88272 -38.76936,-0.55911 -36.06041,-6.82314 -57.24968,-30.25037 -70.220207,-62.82277 -10.29653,-25.85733 -14.41757,-53.01112 -16.36547,-80.55716 -2.79327,-39.50048 -1.08666,-78.79851 6.19883,-117.7722 2.23976,-11.98147 5.86111,-23.56658 12.0319,-34.16705 10.265497,-17.63451 25.465027,-26.11431 46.016177,-23.89641 20.85823,2.25102 35.21721,17.41389 37.82628,38.3758 2.00442,16.10397 -2.20925,31.39682 -4.61656,46.94431 -0.97254,6.28111 -1.35212,12.61061 -0.43631,18.77533 1.65674,11.15206 8.40474,18.11676 19.37198,21.1474 12.72592,3.51659 25.80175,5.58609 38.29736,10.10943 42.55726,15.40558 62.35792,54.85196 57.25004,98.35269 -1.25091,10.65285 -4.00902,20.8203 -8.67312,30.99618 z"
   id="path67"
   style="stroke-width:1.3016;fill:#ffffff" />
</svg>
